# xmcd
#
# Track frame offsets:
#	150
#	17138
#	31435
#	53375
#	65279
#	76882
#	88165
#	108122
#	125814
#
# Disc length: 1964 seconds
#
# Revision: 0
# Processed by: cddbd v1.4PL0 Copyright (c) Steve Scherf et al.
# Submitted via: EasyCDDAExtractor 4.6.9.1
#
DISCID=6907aa09
DTITLE=신지아 - One Woman Acapella
DYEAR=2002
DGENRE=Acapella
TTITLE0=두눈을 살며시
TTITLE1=도무지. 뭐가뭔지
TTITLE2=자장가
TTITLE3=이른 아침
TTITLE4=찔레꽃
TTITLE5=Story (한상원 사.곡)
TTITLE6=눈오는 풍경
TTITLE7=사랑노래
TTITLE8=재회
EXTD=
EXTT0=
EXTT1=
EXTT2=
EXTT3=
EXTT4=
EXTT5=
EXTT6=
EXTT7=
EXTT8=
PLAYORDER=
